<svg width="7" height="12" viewBox="0 0 7 12" fill="none" xmlns="http://www.w3.org/2000/svg">
<path d="M3.89844 11.5162C3.95003 11.4646 4.02741 11.413 4.13058 11.3614C4.23376 11.3614 4.31114 11.3356 4.36273 11.2841C4.46591 11.2841 4.56908 11.2583 4.67225 11.2067C4.72384 11.1551 4.80123 11.1293 4.9044 11.1293C4.33693 9.53006 3.74368 7.90504 3.12462 6.25422C2.55715 4.65499 1.96389 3.02997 1.34483 1.37915C1.29324 1.37915 1.21586 1.40494 1.11269 1.45653C1.0611 1.50812 0.983715 1.53391 0.880539 1.53391C0.777363 1.5855 0.699979 1.6113 0.648391 1.6113C0.545215 1.66289 0.442043 1.71447 0.338867 1.76606C0.906335 3.36529 1.49959 4.99031 2.11865 6.64113C2.68612 8.24036 3.27938 9.86538 3.89844 11.5162Z" fill="black"/>
<path fill-rule="evenodd" clip-rule="evenodd" d="M5.13725 11.2066L3.74438 11.7483L0.107422 1.68865L1.5003 1.14697L5.13725 11.2066ZM3.74438 10.7423L4.5182 10.5102L1.5003 2.15294L0.72648 2.46247L3.74438 10.7423Z" fill="black"/>
<path d="M3.89844 11.5162C3.95003 11.4646 4.02741 11.413 4.13058 11.3614C3.56311 9.76221 2.99565 8.16297 2.42818 6.56374C2.325 6.56374 2.22183 6.58954 2.11865 6.64113C2.68612 8.24036 3.27938 9.86538 3.89844 11.5162ZM2.11865 6.64113C2.22183 6.58954 2.325 6.56374 2.42818 6.56374C1.80912 4.91293 1.21586 3.26212 0.648391 1.6113C0.545215 1.66289 0.442043 1.71447 0.338867 1.76606C0.906335 3.36529 1.49959 4.99031 2.11865 6.64113ZM4.13058 11.3614C4.23376 11.3614 4.31114 11.3356 4.36273 11.2841C3.79526 9.68482 3.2278 8.08559 2.66033 6.48636C2.55715 6.48636 2.47977 6.51216 2.42818 6.56374C2.99565 8.16297 3.56311 9.76221 4.13058 11.3614ZM2.42818 6.56374C2.47977 6.51216 2.55715 6.48636 2.66033 6.48636C2.04127 4.83555 1.44801 3.18473 0.880539 1.53391C0.777363 1.5855 0.699979 1.6113 0.648391 1.6113C1.21586 3.26212 1.80912 4.91293 2.42818 6.56374ZM4.36273 11.2841C4.46591 11.2841 4.56908 11.2583 4.67225 11.2067C4.10479 9.60744 3.51153 7.98242 2.89247 6.3316C2.78929 6.38319 2.71192 6.43478 2.66033 6.48636C3.2278 8.08559 3.79526 9.68482 4.36273 11.2841ZM2.66033 6.48636C2.71192 6.43478 2.78929 6.38319 2.89247 6.3316C2.325 4.73237 1.73174 3.10735 1.11269 1.45653C1.0611 1.50812 0.983715 1.53391 0.880539 1.53391C1.44801 3.18473 2.04127 4.83555 2.66033 6.48636ZM4.67225 11.2067C4.72384 11.1551 4.80123 11.1293 4.9044 11.1293C4.33693 9.53006 3.74368 7.90504 3.12462 6.25422C3.07303 6.30581 2.99565 6.3316 2.89247 6.3316C3.51153 7.98242 4.10479 9.60744 4.67225 11.2067ZM2.89247 6.3316C2.99565 6.3316 3.07303 6.30581 3.12462 6.25422C2.55715 4.65499 1.96389 3.02997 1.34483 1.37915C1.29324 1.37915 1.21586 1.40494 1.11269 1.45653C1.73174 3.10735 2.325 4.73237 2.89247 6.3316Z" fill="url(#paint0_linear_381_24553)"/>
<path d="M4.44043 11.5162C4.49202 11.4646 4.5694 11.413 4.67257 11.3614C4.10511 9.76221 3.53764 8.16297 2.97017 6.56374C2.867 6.56374 2.76382 6.58954 2.66064 6.64113C3.22811 8.24036 3.82138 9.86538 4.44043 11.5162ZM2.66064 6.64113C2.76382 6.58954 2.867 6.56374 2.97017 6.56374C2.35112 4.91293 1.75785 3.26212 1.19038 1.6113C1.08721 1.66289 0.984035 1.71447 0.880859 1.76606C1.44833 3.36529 2.04159 4.99031 2.66064 6.64113ZM4.67257 11.3614C4.77575 11.3614 4.85314 11.3356 4.90472 11.2841C4.33725 9.68482 3.76979 8.08559 3.20232 6.48636C3.09914 6.48636 3.02176 6.51216 2.97017 6.56374C3.53764 8.16297 4.10511 9.76221 4.67257 11.3614ZM2.97017 6.56374C3.02176 6.51216 3.09914 6.48636 3.20232 6.48636C2.58326 4.83555 1.99 3.18473 1.42253 1.53391C1.31936 1.5855 1.24197 1.6113 1.19038 1.6113C1.75785 3.26212 2.35112 4.91293 2.97017 6.56374ZM4.90472 11.2841C5.0079 11.2841 5.11107 11.2583 5.21425 11.2067C4.64678 9.60744 4.05352 7.98242 3.43446 6.3316C3.33129 6.38319 3.25391 6.43478 3.20232 6.48636C3.76979 8.08559 4.33725 9.68482 4.90472 11.2841ZM3.20232 6.48636C3.25391 6.43478 3.33129 6.38319 3.43446 6.3316C2.86699 4.73237 2.27374 3.10735 1.65468 1.45653C1.60309 1.50812 1.52571 1.53391 1.42253 1.53391C1.99 3.18473 2.58326 4.83555 3.20232 6.48636ZM5.21425 11.2067C5.26583 11.1551 5.34322 11.1293 5.44639 11.1293C4.87893 9.53006 4.28567 7.90504 3.66661 6.25422C3.61502 6.30581 3.53764 6.3316 3.43446 6.3316C4.05352 7.98242 4.64678 9.60744 5.21425 11.2067ZM3.43446 6.3316C3.53764 6.3316 3.61502 6.30581 3.66661 6.25422C3.09914 4.65499 2.50588 3.02997 1.88682 1.37915C1.83523 1.37915 1.75786 1.40494 1.65468 1.45653C2.27374 3.10735 2.86699 4.73237 3.43446 6.3316Z" fill="url(#paint1_linear_381_24553)"/>
<path d="M5.21387 10.7424C5.26546 10.6908 5.34284 10.6392 5.44601 10.5876C4.87854 8.9884 4.31108 7.38917 3.74361 5.78994C3.64043 5.78994 3.53726 5.81574 3.43408 5.86733C4.00155 7.46656 4.59481 9.09158 5.21387 10.7424ZM3.43408 5.86733C3.53726 5.81574 3.64043 5.78994 3.74361 5.78994C3.12455 4.13912 2.53129 2.48831 1.96382 0.837495C1.86064 0.889083 1.75747 0.940669 1.6543 0.992257C2.22177 2.59149 2.81502 4.21651 3.43408 5.86733ZM5.44601 10.5876C5.54919 10.5876 5.62657 10.5618 5.67816 10.5103C5.11069 8.91102 4.54323 7.31179 3.97576 5.71256C3.87258 5.71256 3.7952 5.73835 3.74361 5.78994C4.31108 7.38917 4.87854 8.9884 5.44601 10.5876ZM3.74361 5.78994C3.7952 5.73835 3.87258 5.71256 3.97576 5.71256C3.3567 4.06174 2.76344 2.41093 2.19597 0.760108C2.09279 0.811696 2.01541 0.837495 1.96382 0.837495C2.53129 2.48831 3.12455 4.13912 3.74361 5.78994ZM5.67816 10.5103C5.78134 10.5103 5.88451 10.4845 5.98768 10.4329C5.42022 8.83363 4.82696 7.20862 4.2079 5.5578C4.10472 5.60939 4.02735 5.66097 3.97576 5.71256C4.54323 7.31179 5.11069 8.91102 5.67816 10.5103ZM3.97576 5.71256C4.02735 5.66097 4.10472 5.60939 4.2079 5.5578C3.64043 3.95857 3.04717 2.33354 2.42812 0.682728C2.37653 0.734316 2.29914 0.760108 2.19597 0.760108C2.76344 2.41093 3.3567 4.06174 3.97576 5.71256ZM5.98768 10.4329C6.03927 10.3813 6.11666 10.3555 6.21983 10.3555C5.65236 8.75625 5.05911 7.13123 4.44005 5.48042C4.38846 5.53201 4.31108 5.5578 4.2079 5.5578C4.82696 7.20862 5.42022 8.83363 5.98768 10.4329ZM4.2079 5.5578C4.31108 5.5578 4.38846 5.53201 4.44005 5.48042C3.87258 3.88119 3.27932 2.25616 2.66026 0.605347C2.60867 0.605347 2.53129 0.63114 2.42812 0.682728C3.04717 2.33354 3.64043 3.95857 4.2079 5.5578Z" fill="url(#paint2_linear_381_24553)"/>
<defs>
<linearGradient id="paint0_linear_381_24553" x1="4.38362" y1="11.3073" x2="4.67526" y2="11.2018" gradientUnits="userSpaceOnUse">
<stop stop-color="#222220"/>
<stop offset="1" stop-color="#5F5F5D"/>
</linearGradient>
<linearGradient id="paint1_linear_381_24553" x1="4.92561" y1="11.3073" x2="5.21725" y2="11.2018" gradientUnits="userSpaceOnUse">
<stop stop-color="#222220"/>
<stop offset="1" stop-color="#5F5F5D"/>
</linearGradient>
<linearGradient id="paint2_linear_381_24553" x1="5.69905" y1="10.5335" x2="5.99069" y2="10.428" gradientUnits="userSpaceOnUse">
<stop stop-color="#222220"/>
<stop offset="1" stop-color="#5F5F5D"/>
</linearGradient>
</defs>
</svg>
