<svg viewBox="0 0 200 170" fill="none" xmlns="http://www.w3.org/2000/svg">
    <path d="M13.3325 99.3263H0.874023V98.7847H13.3325V99.3263Z" fill="#939598" fill-opacity="0.55" />
    <path d="M13.4099 96.8501L0.874023 96.5406V95.9215L13.4099 96.3084V96.8501Z" fill="#939598" fill-opacity="0.55" />
    <path d="M13.4878 94.3738L1.0293 93.6774V93.1357L13.4878 93.8322V94.3738Z" fill="#353535" fill-opacity="0.55" />
    <path d="M13.6421 91.8977L1.18359 90.8144L1.26098 90.2727L13.7195 91.356L13.6421 91.8977Z" fill="#939598"
        fill-opacity="0.55" />
    <path d="M13.8743 89.4215L1.49316 88.0286L1.57054 87.4869L13.9517 88.8798L13.8743 89.4215Z" fill="#939598"
        fill-opacity="0.55" />
    <path d="M14.261 87.0225L1.87988 85.2427L1.95726 84.701L14.3384 86.4808L14.261 87.0225Z" fill="#939598"
        fill-opacity="0.55" />
    <path d="M14.6477 84.5464L2.2666 82.3797L2.42136 81.838L14.7251 84.0047L14.6477 84.5464Z" fill="#939598"
        fill-opacity="0.55" />
    <path d="M15.035 82.1475L2.80859 79.5939L2.96336 79.1296L15.1897 81.6059L15.035 82.1475Z" fill="#939598"
        fill-opacity="0.55" />
    <path d="M15.5767 79.6713L3.42773 76.8855L3.5825 76.3439L15.7315 79.1296L15.5767 79.6713Z" fill="#939598"
        fill-opacity="0.55" />
    <path d="M16.1956 77.2724L4.12402 74.0998L4.27879 73.5581L16.3504 76.7308L16.1956 77.2724Z" fill="#939598"
        fill-opacity="0.55" />
    <path d="M16.8927 74.8737L4.89844 71.3915L5.0532 70.8499L17.0474 74.4094L16.8927 74.8737Z" fill="#939598"
        fill-opacity="0.55" />
    <path d="M17.5887 72.5521L5.67188 68.683L5.90402 68.1414L17.7435 72.0105L17.5887 72.5521Z" fill="#939598"
        fill-opacity="0.55" />
    <path d="M18.3627 70.2308L6.60059 65.9748L6.83273 65.4331L18.5948 69.6891L18.3627 70.2308Z" fill="#353535"
        fill-opacity="0.55" />
    <path d="M19.2911 67.9092L7.60645 63.3437L7.83859 62.802L19.4459 67.3675L19.2911 67.9092Z" fill="#939598"
        fill-opacity="0.55" />
    <path d="M20.2194 65.5878L8.68945 60.7127L8.9216 60.171L20.3741 65.0461L20.2194 65.5878Z" fill="#939598"
        fill-opacity="0.55" />
    <path d="M21.2248 63.3437L9.84961 58.0817L10.0818 57.6174L21.3795 62.802L21.2248 63.3437Z" fill="#939598"
        fill-opacity="0.55" />
    <path d="M22.2311 61.0996L11.0107 55.5281L11.2429 55.0638L22.4633 60.558L22.2311 61.0996Z" fill="#939598"
        fill-opacity="0.55" />
    <path d="M23.3918 58.8555L12.3262 53.0518L12.5583 52.5101L23.6239 58.3912L23.3918 58.8555Z" fill="#939598"
        fill-opacity="0.55" />
    <path d="M24.5525 56.6889L13.6416 50.5757L13.9511 50.0341L24.862 56.2246L24.5525 56.6889Z" fill="#939598"
        fill-opacity="0.55" />
    <path d="M25.791 54.5221L15.1123 48.0994L15.4218 47.6351L26.1006 54.0578L25.791 54.5221Z" fill="#939598"
        fill-opacity="0.55" />
    <path d="M27.106 52.4327L16.582 45.7005L16.8916 45.2362L27.4155 51.9684L27.106 52.4327Z" fill="#939598"
        fill-opacity="0.55" />
    <path d="M28.4998 50.4208L18.208 43.3017L18.5175 42.8374L28.8093 49.9565L28.4998 50.4208Z" fill="#939598"
        fill-opacity="0.55" />
    <path d="M29.8927 48.3316L19.833 40.9803L20.1425 40.5934L30.2796 47.9447L29.8927 48.3316Z" fill="#353535"
        fill-opacity="0.55" />
    <path d="M31.4401 46.397L21.5352 38.7361L21.8447 38.2719L31.7496 45.9327L31.4401 46.397Z" fill="#939598"
        fill-opacity="0.55" />
    <path d="M32.9874 44.4625L23.2373 36.4921L23.6242 36.1052L33.297 43.9982L32.9874 44.4625Z" fill="#939598"
        fill-opacity="0.55" />
    <path d="M34.5353 42.5279L25.0947 34.3254L25.4816 33.9385L34.9222 42.141L34.5353 42.5279Z" fill="#939598"
        fill-opacity="0.55" />
    <path d="M36.1606 40.6708L26.9521 32.2362L27.3391 31.8492L36.5475 40.2839L36.1606 40.6708Z" fill="#939598"
        fill-opacity="0.55" />
    <path d="M37.8628 38.891L28.9639 30.1468L29.3508 29.7599L38.2497 38.5041L37.8628 38.891Z" fill="#939598"
        fill-opacity="0.55" />
    <path d="M39.6424 37.1885L30.9756 28.2122L31.3625 27.8253L40.0293 36.8016L39.6424 37.1885Z" fill="#939598"
        fill-opacity="0.55" />
    <path d="M41.4219 35.4861L32.9873 26.2003L33.3742 25.8907L41.8862 35.0992L41.4219 35.4861Z" fill="#939598"
        fill-opacity="0.55" />
    <path d="M43.2794 33.7837L35.1543 24.3431L35.5412 23.9562L43.7437 33.4742L43.2794 33.7837Z" fill="#939598"
        fill-opacity="0.55" />
    <path d="M45.2133 32.2362L37.3203 22.5634L37.7072 22.1765L45.6002 31.8493L45.2133 32.2362Z" fill="#939598"
        fill-opacity="0.55" />
    <path d="M47.1491 30.6884L39.4883 20.7835L39.9526 20.3966L47.6134 30.3015L47.1491 30.6884Z" fill="#353535"
        fill-opacity="0.55" />
    <path d="M49.1609 29.2182L41.8096 19.0811L42.1965 18.7716L49.5478 28.8313L49.1609 29.2182Z" fill="#939598"
        fill-opacity="0.55" />
    <path d="M51.1726 27.7479L44.1309 17.4561L44.5178 17.1466L51.6369 27.4384L51.1726 27.7479Z" fill="#939598"
        fill-opacity="0.55" />
    <path d="M53.1844 26.4325L46.4521 15.9085L46.9164 15.599L53.6487 26.123L53.1844 26.4325Z" fill="#939598"
        fill-opacity="0.55" />
    <path d="M55.3507 25.1169L48.8506 14.3608L49.3149 14.1287L55.815 24.8074L55.3507 25.1169Z" fill="#939598"
        fill-opacity="0.55" />
    <path d="M57.4403 23.8788L51.3271 12.968L51.7914 12.6584L57.9046 23.5693L57.4403 23.8788Z" fill="#939598"
        fill-opacity="0.55" />
    <path d="M59.6074 22.6408L53.8037 11.5752L54.268 11.343L60.149 22.4087L59.6074 22.6408Z" fill="#939598"
        fill-opacity="0.55" />
    <path d="M61.8515 21.5574L56.3574 10.337L56.8217 10.1049L62.3158 21.3253L61.8515 21.5574Z" fill="#939598"
        fill-opacity="0.55" />
    <path d="M64.0948 20.474L58.9102 9.09884L59.3744 8.8667L64.559 20.2419L64.0948 20.474Z" fill="#939598"
        fill-opacity="0.55" />
    <path d="M66.3389 19.4681L61.4639 7.93821L62.0055 7.78345L66.8806 19.236L66.3389 19.4681Z" fill="#939598"
        fill-opacity="0.55" />
    <path d="M68.6612 18.5395L64.0957 6.93222L64.6374 6.70007L69.1255 18.3848L68.6612 18.5395Z" fill="#353535"
        fill-opacity="0.55" />
    <path d="M70.9823 17.6883L66.8037 5.92624L67.268 5.69409L71.524 17.5335L70.9823 17.6883Z" fill="#939598"
        fill-opacity="0.55" />
    <path d="M73.3037 16.9145L69.4346 4.99766L69.9762 4.8429L73.8453 16.7597L73.3037 16.9145Z" fill="#939598"
        fill-opacity="0.55" />
    <path d="M75.7022 16.1407L72.1426 4.14646L72.6842 3.9917L76.2438 15.9859L75.7022 16.1407Z" fill="#939598"
        fill-opacity="0.55" />
    <path d="M78.1014 15.5216L74.9287 3.37267L75.4704 3.29529L78.5657 15.3669L78.1014 15.5216Z" fill="#939598"
        fill-opacity="0.55" />
    <path d="M80.4999 14.9025L77.6367 2.75352L78.1784 2.59875L81.0415 14.8251L80.4999 14.9025Z" fill="#939598"
        fill-opacity="0.55" />
    <path d="M82.8991 14.3609L80.4229 2.13451L80.9645 2.05713L83.4408 14.2835L82.8991 14.3609Z" fill="#939598"
        fill-opacity="0.55" />
    <path d="M85.2983 13.9739L83.209 1.59276L83.7507 1.51538L85.84 13.8191L85.2983 13.9739Z" fill="#939598"
        fill-opacity="0.55" />
    <path d="M87.7739 13.587L85.9941 1.20592L86.5358 1.12854L88.3156 13.5097L87.7739 13.587Z" fill="#939598"
        fill-opacity="0.55" />
    <path d="M90.2503 13.2001L88.8574 0.818958L89.3991 0.741577L90.792 13.2001H90.2503Z" fill="#939598"
        fill-opacity="0.55" />
    <path d="M92.7259 12.968L91.6426 0.509521H92.1843L93.2676 12.968H92.7259Z" fill="#353535" fill-opacity="0.55" />
    <path d="M95.2023 12.8132L94.5059 0.354728L95.0475 0.277344L95.744 12.8132H95.2023Z" fill="#939598"
        fill-opacity="0.55" />
    <path d="M97.6789 12.7358L97.292 0.199951H97.8337L98.2206 12.7358H97.6789Z" fill="#939598" fill-opacity="0.55" />
    <path d="M100.155 12.6585V0.199951H100.697V12.6585H100.155Z" fill="#939598" fill-opacity="0.55" />
    <path d="M102.632 12.7358L102.941 0.199951L103.56 0.277332L103.174 12.7358H102.632Z" fill="#939598"
        fill-opacity="0.55" />
    <path d="M105.107 12.8132L105.804 0.354736H106.346L105.649 12.8906L105.107 12.8132Z" fill="#939598"
        fill-opacity="0.55" />
    <path d="M107.506 13.0454L108.667 0.586914H109.208L108.125 13.0454H107.506Z" fill="#939598" fill-opacity="0.55" />
    <path d="M109.982 13.2776L111.453 0.819092L111.994 0.896473L110.524 13.355L109.982 13.2776Z" fill="#939598"
        fill-opacity="0.55" />
    <path d="M112.459 13.5871L114.239 1.20593L114.78 1.28331L113.001 13.6644L112.459 13.5871Z" fill="#939598"
        fill-opacity="0.55" />
    <path d="M114.936 13.974L117.025 1.67029L117.567 1.74767L115.477 14.0514L114.936 13.974Z" fill="#939598"
        fill-opacity="0.55" />
    <path d="M117.334 14.4383L119.81 2.21191L120.352 2.2893L117.876 14.5157L117.334 14.4383Z" fill="#353535"
        fill-opacity="0.55" />
    <path d="M119.732 14.9799L122.596 2.83093L123.137 2.90832L120.274 15.0573L119.732 14.9799Z" fill="#939598"
        fill-opacity="0.55" />
    <path d="M122.132 15.5989L125.382 3.44995L125.924 3.60471L122.674 15.6763L122.132 15.5989Z" fill="#939598"
        fill-opacity="0.55" />
    <path d="M124.53 16.218L128.09 4.22375L128.632 4.37852L125.072 16.3727L124.53 16.218Z" fill="#939598"
        fill-opacity="0.55" />
    <path d="M126.93 16.9919L130.799 5.07507L131.34 5.22984L127.471 17.1467L126.93 16.9919Z" fill="#939598"
        fill-opacity="0.55" />
    <path d="M129.251 17.7657L133.507 6.00366L133.971 6.15843L129.793 17.9979L129.251 17.7657Z" fill="#939598"
        fill-opacity="0.55" />
    <path d="M131.572 18.6169L136.138 7.00964L136.679 7.16441L132.114 18.8491L131.572 18.6169Z" fill="#939598"
        fill-opacity="0.55" />
    <path d="M133.894 19.5454L138.769 8.0929L139.233 8.24766L134.358 19.7776L133.894 19.5454Z" fill="#939598"
        fill-opacity="0.55" />
    <path d="M136.138 20.5514L141.322 9.17627L141.864 9.40842L136.602 20.7836L136.138 20.5514Z" fill="#939598"
        fill-opacity="0.55" />
    <path d="M138.382 21.6347L143.876 10.4143L144.418 10.6465L138.846 21.8668L138.382 21.6347Z" fill="#939598"
        fill-opacity="0.55" />
    <path d="M140.549 22.7955L146.43 11.7299L146.894 11.962L141.091 23.0276L140.549 22.7955Z" fill="#353535"
        fill-opacity="0.55" />
    <path d="M142.715 23.9562L148.905 13.1227L149.37 13.3548L143.257 24.2657L142.715 23.9562Z" fill="#939598"
        fill-opacity="0.55" />
    <path d="M144.882 25.1943L151.382 14.5156L151.846 14.8252L145.346 25.5039L144.882 25.1943Z" fill="#939598"
        fill-opacity="0.55" />
    <path d="M146.971 26.5099L153.78 15.986L154.245 16.2955L147.435 26.8194L146.971 26.5099Z" fill="#939598"
        fill-opacity="0.55" />
    <path d="M149.061 27.9028L156.102 17.611L156.567 17.9205L149.525 28.2123L149.061 27.9028Z" fill="#939598"
        fill-opacity="0.55" />
    <path d="M151.072 29.2956L158.424 19.236L158.888 19.5455L151.537 29.6825L151.072 29.2956Z" fill="#939598"
        fill-opacity="0.55" />
    <path d="M153.085 30.8433L160.668 20.9384L161.133 21.2479L153.472 31.1528L153.085 30.8433Z" fill="#939598"
        fill-opacity="0.55" />
    <path d="M155.02 32.3909L162.912 22.7181L163.377 23.0277L155.406 32.7004L155.02 32.3909Z" fill="#939598"
        fill-opacity="0.55" />
    <path d="M156.876 33.9385L165.078 24.4979L165.465 24.8848L157.263 34.3254L156.876 33.9385Z" fill="#939598"
        fill-opacity="0.55" />
    <path d="M158.733 35.641L167.168 26.4325L167.632 26.8194L159.12 36.0279L158.733 35.641Z" fill="#939598"
        fill-opacity="0.55" />
    <path d="M160.513 37.3434L169.257 28.3671L169.644 28.754L160.9 37.7303L160.513 37.3434Z" fill="#353535"
        fill-opacity="0.55" />
    <path d="M162.293 39.0457L171.269 30.3789L171.656 30.7658L162.68 39.51L162.293 39.0457Z" fill="#939598"
        fill-opacity="0.55" />
    <path d="M163.995 40.9029L173.204 32.4683L173.59 32.8552L164.305 41.2898L163.995 40.9029Z" fill="#939598"
        fill-opacity="0.55" />
    <path d="M165.621 42.7601L175.062 34.5576L175.449 34.9445L166.008 43.147L165.621 42.7601Z" fill="#939598"
        fill-opacity="0.55" />
    <path d="M167.168 44.6172L176.918 36.7242L177.228 37.1885L167.555 45.0815L167.168 44.6172Z" fill="#939598"
        fill-opacity="0.55" />
    <path d="M168.716 46.5518L178.621 38.9684L179.008 39.4327L169.103 47.0161L168.716 46.5518Z" fill="#939598"
        fill-opacity="0.55" />
    <path d="M170.186 48.5637L180.323 41.2124L180.71 41.6767L170.572 49.028L170.186 48.5637Z" fill="#939598"
        fill-opacity="0.55" />
    <path d="M171.656 50.5757L181.948 43.5339L182.258 43.9982L171.966 51.04L171.656 50.5757Z" fill="#939598"
        fill-opacity="0.55" />
    <path d="M172.972 52.665L183.573 45.9327L183.805 46.397L173.281 53.1293L172.972 52.665Z" fill="#939598"
        fill-opacity="0.55" />
    <path d="M174.287 54.7542L185.043 48.3315L185.353 48.7958L174.597 55.2185L174.287 54.7542Z" fill="#939598"
        fill-opacity="0.55" />
    <path d="M175.525 56.921L186.436 50.8079L186.746 51.2722L175.835 57.3853L175.525 56.921Z" fill="#353535"
        fill-opacity="0.55" />
    <path d="M176.764 59.0877L187.829 53.2841L188.061 53.7483L176.996 59.552L176.764 59.0877Z" fill="#939598"
        fill-opacity="0.55" />
    <path d="M177.847 61.2544L189.067 55.8376L189.299 56.3019L178.079 61.7961L177.847 61.2544Z" fill="#939598"
        fill-opacity="0.55" />
    <path d="M178.93 63.4984L190.305 58.3912L190.537 58.8555L179.162 64.0401L178.93 63.4984Z" fill="#939598"
        fill-opacity="0.55" />
    <path d="M179.937 65.8199L191.466 60.9448L191.621 61.4865L180.091 66.2842L179.937 65.8199Z" fill="#939598"
        fill-opacity="0.55" />
    <path d="M180.864 68.064L192.472 63.5758L192.704 64.1175L181.019 68.6056L180.864 68.064Z" fill="#939598"
        fill-opacity="0.55" />
    <path d="M181.716 70.3854L193.478 66.2842L193.633 66.7485L181.871 70.9271L181.716 70.3854Z" fill="#939598"
        fill-opacity="0.55" />
    <path d="M182.49 72.7844L194.407 68.9153L194.562 69.457L182.645 73.3261L182.49 72.7844Z" fill="#939598"
        fill-opacity="0.55" />
    <path d="M183.186 75.1058L195.18 71.6237L195.335 72.1653L183.34 75.6475L183.186 75.1058Z" fill="#939598"
        fill-opacity="0.55" />
    <path d="M183.883 77.5046L195.954 74.4093L196.109 74.8736L184.038 78.0463L183.883 77.5046Z" fill="#939598"
        fill-opacity="0.55" />
    <path d="M184.425 79.9034L196.651 77.1177L196.729 77.6593L184.58 80.4451L184.425 79.9034Z" fill="#353535"
        fill-opacity="0.55" />
    <path d="M184.966 82.3797L197.27 79.9034L197.347 80.4451L185.121 82.9213L184.966 82.3797Z" fill="#939598"
        fill-opacity="0.55" />
    <path d="M185.43 84.7785L197.733 82.6892L197.811 83.2309L185.507 85.3202L185.43 84.7785Z" fill="#939598"
        fill-opacity="0.55" />
    <path d="M185.817 87.2548L198.199 85.475L198.276 86.0167L185.895 87.7964L185.817 87.2548Z" fill="#939598"
        fill-opacity="0.55" />
    <path d="M186.127 89.6536L198.508 88.3381L198.585 88.8798L186.204 90.2727L186.127 89.6536Z" fill="#939598"
        fill-opacity="0.55" />
    <path d="M186.359 92.1299L198.818 91.1239L198.895 91.6656L186.437 92.6715L186.359 92.1299Z" fill="#939598"
        fill-opacity="0.55" />
    <path d="M186.514 94.606L199.05 93.9869V94.5286L186.591 95.1477L186.514 94.606Z" fill="#939598"
        fill-opacity="0.55" />
    <path d="M186.591 97.0824L199.127 96.7728V97.3145L186.668 97.624L186.591 97.0824Z" fill="#939598"
        fill-opacity="0.55" />
    <path d="M186.668 99.5585L199.126 99.6358V100.178L186.668 100.1V99.5585Z" fill="#939598" fill-opacity="0.55" />
    <path d="M186.591 102.035L199.127 102.422V102.963L186.591 102.576V102.035Z" fill="#939598" fill-opacity="0.55" />
    <path d="M186.513 104.511L198.971 105.285V105.826L186.436 105.053L186.513 104.511Z" fill="#353535"
        fill-opacity="0.55" />
    <path d="M186.281 106.987L198.74 108.071V108.69L186.281 107.529V106.987Z" fill="#939598" fill-opacity="0.55" />
    <path d="M186.049 109.463L198.508 110.934L198.43 111.475L185.972 110.005L186.049 109.463Z" fill="#939598"
        fill-opacity="0.55" />
    <path d="M185.739 111.94L198.121 113.719L198.043 114.261L185.662 112.481L185.739 111.94Z" fill="#939598"
        fill-opacity="0.55" />
    <path d="M185.353 114.339L197.657 116.505L197.579 117.047L185.275 114.88L185.353 114.339Z" fill="#939598"
        fill-opacity="0.55" />
    <path d="M184.888 116.815L197.115 119.291L197.037 119.833L184.733 117.356L184.888 116.815Z" fill="#939598"
        fill-opacity="0.55" />
    <path d="M184.347 119.214L196.496 122.077L196.419 122.618L184.192 119.755L184.347 119.214Z" fill="#939598"
        fill-opacity="0.55" />
    <path d="M183.727 121.612L195.799 124.862L195.721 125.404L183.572 122.154L183.727 121.612Z" fill="#939598"
        fill-opacity="0.55" />
    <path d="M183.109 124.011L195.026 127.571L194.871 128.112L182.954 124.553L183.109 124.011Z" fill="#939598"
        fill-opacity="0.55" />
    <path d="M182.334 126.333L194.251 130.279L194.019 130.821L182.18 126.874L182.334 126.333Z" fill="#939598"
        fill-opacity="0.55" />
    <path d="M181.561 128.731L193.323 132.987L193.091 133.452L181.329 129.196L181.561 128.731Z" fill="#353535"
        fill-opacity="0.55" />
    <path d="M180.632 131.053L192.317 135.619L192.085 136.083L180.478 131.517L180.632 131.053Z" fill="#939598"
        fill-opacity="0.55" />
    <path d="M179.704 133.297L191.234 138.25L191.002 138.714L179.472 133.839L179.704 133.297Z" fill="#939598"
        fill-opacity="0.55" />
    <path d="M178.698 135.619L190.073 140.803L189.841 141.345L178.466 136.083L178.698 135.619Z" fill="#939598"
        fill-opacity="0.55" />
    <path d="M177.614 137.785L188.834 143.357L188.602 143.898L177.382 138.327L177.614 137.785Z" fill="#939598"
        fill-opacity="0.55" />
    <path d="M176.531 140.029L187.519 145.91L187.287 146.375L176.222 140.494L176.531 140.029Z" fill="#939598"
        fill-opacity="0.55" />
    <path d="M175.293 142.196L186.204 148.387L185.894 148.851L175.061 142.66L175.293 142.196Z" fill="#939598"
        fill-opacity="0.55" />
    <path d="M174.056 144.363L184.734 150.786L184.502 151.327L173.746 144.827L174.056 144.363Z" fill="#939598"
        fill-opacity="0.55" />
    <path d="M172.739 146.452L183.263 153.262L182.954 153.649L172.43 146.916L172.739 146.452Z" fill="#939598"
        fill-opacity="0.55" />
    <path d="M171.347 148.464L181.638 155.583L181.329 156.047L171.037 148.928L171.347 148.464Z" fill="#939598"
        fill-opacity="0.55" />
    <path d="M169.953 150.476L180.013 157.905L179.703 158.369L169.644 150.94L169.953 150.476Z" fill="#353535"
        fill-opacity="0.55" />
    <path d="M168.484 152.488L178.311 160.149L178.002 160.613L168.097 152.952L168.484 152.488Z" fill="#939598"
        fill-opacity="0.55" />
    <path d="M166.936 154.422L176.531 162.393L176.222 162.78L166.549 154.809L166.936 154.422Z" fill="#939598"
        fill-opacity="0.55" />
    <path d="M165.311 156.28L174.751 164.559L174.364 164.946L164.924 156.744L165.311 156.28Z" fill="#939598"
        fill-opacity="0.55" />
    <path d="M163.608 158.137L172.817 166.649L172.43 167.036L163.299 158.524L163.608 158.137Z" fill="#939598"
        fill-opacity="0.55" />
    <path d="M161.905 159.917L170.882 168.661L170.495 169.125L161.519 160.381L161.905 159.917Z" fill="#939598"
        fill-opacity="0.55" />
    <path d="M37.5527 159.452L28.5764 168.119L28.1895 167.732L37.1658 159.065L37.5527 159.452Z" fill="#939598"
        fill-opacity="0.55" />
    <path d="M35.8503 157.595L26.6418 166.03L26.2549 165.643L35.5407 157.208L35.8503 157.595Z" fill="#939598"
        fill-opacity="0.55" />
    <path d="M34.226 155.738L24.708 163.94L24.3984 163.476L33.839 155.351L34.226 155.738Z" fill="#939598"
        fill-opacity="0.55" />
    <path d="M32.6778 153.881L22.9277 161.696L22.6182 161.309L32.2909 153.416L32.6778 153.881Z" fill="#939598"
        fill-opacity="0.55" />
    <path d="M31.1307 151.946L21.1484 159.53L20.8389 159.065L30.8211 151.482L31.1307 151.946Z" fill="#939598"
        fill-opacity="0.55" />
    <path d="M29.6597 149.934L19.5227 157.208L19.1357 156.744L29.3502 149.47L29.6597 149.934Z" fill="#939598"
        fill-opacity="0.55" />
    <path d="M28.1892 147.922L17.8974 154.887L17.5879 154.422L27.8797 147.458L28.1892 147.922Z" fill="#939598"
        fill-opacity="0.55" />
    <path d="M26.8745 145.833L16.3505 152.565L16.041 152.101L26.565 145.369L26.8745 145.833Z" fill="#939598"
        fill-opacity="0.55" />
    <path d="M25.5586 143.744L14.8025 150.089L14.5703 149.625L25.249 143.279L25.5586 143.744Z" fill="#939598"
        fill-opacity="0.55" />
    <path d="M24.3207 141.577L13.4099 147.69L13.1777 147.148L24.0886 141.113L24.3207 141.577Z" fill="#353535"
        fill-opacity="0.55" />
    <path d="M23.1593 139.41L12.0937 145.136L11.7842 144.672L22.9272 138.869L23.1593 139.41Z" fill="#939598"
        fill-opacity="0.55" />
    <path d="M22.0768 137.166L10.779 142.66L10.5469 142.119L21.7673 136.702L22.0768 137.166Z" fill="#939598"
        fill-opacity="0.55" />
    <path d="M20.993 134.922L9.61789 140.107L9.38574 139.565L20.7609 134.458L20.993 134.922Z" fill="#939598"
        fill-opacity="0.55" />
    <path d="M19.9877 132.678L8.45773 137.476L8.22559 136.934L19.8329 132.136L19.9877 132.678Z" fill="#939598"
        fill-opacity="0.55" />
    <path d="M19.0592 130.356L7.37449 134.845L7.21973 134.303L18.9044 129.815L19.0592 130.356Z" fill="#939598"
        fill-opacity="0.55" />
    <path d="M18.2081 128.035L6.44601 132.214L6.21387 131.672L18.0533 127.493L18.2081 128.035Z" fill="#939598"
        fill-opacity="0.55" />
    <path d="M17.4339 125.714L5.51707 129.505L5.3623 128.964L17.2791 125.172L17.4339 125.714Z" fill="#939598"
        fill-opacity="0.55" />
    <path d="M16.7369 123.315L4.74265 126.797L4.58789 126.255L16.5821 122.773L16.7369 123.315Z" fill="#939598"
        fill-opacity="0.55" />
    <path d="M16.0408 120.916L3.96922 124.011L3.81445 123.547L15.9634 120.374L16.0408 120.916Z" fill="#939598"
        fill-opacity="0.55" />
    <path d="M15.4991 118.517L3.27269 121.303L3.19531 120.761L15.3443 117.975L15.4991 118.517Z" fill="#353535"
        fill-opacity="0.55" />
    <path d="M14.9573 116.118L2.73094 118.517L2.57617 117.975L14.8799 115.577L14.9573 116.118Z" fill="#939598"
        fill-opacity="0.55" />
    <path d="M14.5698 113.642L2.18871 115.731L2.11133 115.19L14.4151 113.1L14.5698 113.642Z" fill="#939598"
        fill-opacity="0.55" />
    <path d="M14.1831 111.243L1.80199 112.946L1.72461 112.404L14.1057 110.702L14.1831 111.243Z" fill="#939598"
        fill-opacity="0.55" />
    <path d="M13.8738 108.767L1.41527 110.082L1.33789 109.541L13.7964 108.225L13.8738 108.767Z" fill="#939598"
        fill-opacity="0.55" />
    <path d="M13.6423 106.291L1.18383 107.297L1.10645 106.755L13.565 105.749L13.6423 106.291Z" fill="#939598"
        fill-opacity="0.55" />
    <path d="M13.4871 103.815L0.951172 104.434V103.892L13.4097 103.273L13.4871 103.815Z" fill="#939598"
        fill-opacity="0.55" />
    <path d="M13.3325 101.338L0.874023 101.648V101.106L13.3325 100.797V101.338Z" fill="#939598" fill-opacity="0.55" />
</svg>